<svg width="64" height="64" viewBox="0 0 64 64" fill="none" xmlns="http://www.w3.org/2000/svg">
<path d="M31.9999 4.26666C30.7199 4.26666 30.2933 5.12 29.4399 5.97333L4.69327 46.5067C4.2666 46.9333 4.2666 47.7867 4.2666 48.2133C4.2666 50.3467 5.97327 51.2 7.25327 51.2H56.7466C58.4533 51.2 59.7333 50.3467 59.7333 48.2133C59.7333 47.36 59.7333 47.36 59.3066 46.5067L34.9866 5.97333C34.1333 5.12 33.2799 4.26666 31.9999 4.26666ZM31.9999 10.6667L46.0799 34.1333H42.6666L36.2666 27.7333L31.9999 34.1333L27.7333 27.7333L21.3333 34.1333H17.4933L31.9999 10.6667Z" fill="black"/>
</svg>
